<svg width="636" height="200" viewBox="0 0 636 200" fill="none" xmlns="http://www.w3.org/2000/svg">
<g clip-path="url(#clip0_6_2)">
<path d="M24 180.002C24 182.763 26.2386 185.002 29 185.002C31.7614 185.002 34 182.763 34 180.002H24ZM24 30.9983L24 180.002H34L34 30.9983H24Z" fill="black"/>
<line x1="29.0002" y1="31.9983" x2="103.225" y2="130.914" stroke="black" stroke-width="10" stroke-linecap="round"/>
<path d="M98.5 131.002C98.5 133.764 100.739 136.002 103.5 136.002C106.261 136.002 108.5 133.764 108.5 131.002H98.5ZM108.5 131.002L108.5 26.9953H98.5L98.5 131.002H108.5Z" fill="black"/>
<path d="M44 81L118.746 180.192" stroke="black" stroke-width="10" stroke-linecap="round"/>
<path d="M119.051 180.002L119.051 31" stroke="black" stroke-width="10" stroke-linecap="round"/>
<path d="M130 180C130 182.761 132.239 185 135 185C137.761 185 140 182.761 140 180H130ZM140 180L140 27H130L130 180H140Z" fill="black"/>
<path d="M204.001 31.5055C206.763 31.5055 209.001 29.2669 209.001 26.5055C209.001 23.7441 206.763 21.5055 204.001 21.5055V31.5055ZM23.9987 31.5055H204.001V21.5055H23.9987V31.5055Z" fill="black"/>
<path d="M169.58 39.58C175.58 39.58 180.14 40.3 183.26 41.74C186.38 43.06 189.14 44.56 191.54 46.24C192.98 47.08 194.12 47.74 194.96 48.22C195.92 48.58 196.82 48.76 197.66 48.76C198.86 48.76 199.7 48.1 200.18 46.78C200.78 45.46 201.26 43.48 201.62 40.84H205.76C205.64 42.88 205.46 45.34 205.22 48.22C205.1 50.98 204.98 54.7 204.86 59.38C204.86 63.94 204.86 70 204.86 77.56H200.72C200.36 71.8 199.1 66.28 196.94 61C194.78 55.72 191.6 51.4 187.4 48.04C183.32 44.68 177.92 43 171.2 43C164.84 43 159.56 44.92 155.36 48.76C151.28 52.6 149.24 57.64 149.24 63.88C149.24 69.28 150.62 73.84 153.38 77.56C156.14 81.16 159.8 84.46 164.36 87.46C169.04 90.34 174.08 93.46 179.48 96.82C185.72 100.66 191.24 104.5 196.04 108.34C200.96 112.06 204.8 116.2 207.56 120.76C210.44 125.32 211.88 130.84 211.88 137.32C211.88 145 210.14 151.36 206.66 156.4C203.18 161.44 198.56 165.22 192.8 167.74C187.04 170.26 180.68 171.52 173.72 171.52C167.36 171.52 162.32 170.8 158.6 169.36C154.88 167.92 151.7 166.42 149.06 164.86C146.42 163.18 144.38 162.34 142.94 162.34C141.74 162.34 140.84 163 140.24 164.32C139.76 165.64 139.34 167.62 138.98 170.26H134.84C135.08 167.74 135.2 164.8 135.2 161.44C135.32 157.96 135.38 153.46 135.38 147.94C135.5 142.42 135.56 135.46 135.56 127.06H139.7C140.18 134.26 141.5 140.98 143.66 147.22C145.94 153.46 149.36 158.5 153.92 162.34C158.6 166.06 164.78 167.92 172.46 167.92C176.42 167.92 180.14 167.14 183.62 165.58C187.22 163.9 190.16 161.32 192.44 157.84C194.72 154.24 195.86 149.62 195.86 143.98C195.86 139.06 194.66 134.8 192.26 131.2C189.98 127.48 186.74 124.06 182.54 120.94C178.34 117.7 173.42 114.4 167.78 111.04C162.14 107.56 156.86 104.02 151.94 100.42C147.02 96.82 143.06 92.68 140.06 88C137.18 83.2 135.74 77.44 135.74 70.72C135.74 63.64 137.3 57.82 140.42 53.26C143.66 48.58 147.86 45.16 153.02 43C158.18 40.72 163.7 39.58 169.58 39.58Z" fill="black"/>
<path d="M281.16 52.016V52.976C280.072 53.008 279.24 53.168 278.664 53.456C278.12 53.744 277.752 54.208 277.56 54.848C277.368 55.488 277.272 56.4 277.272 57.584V86.24C277.08 86.24 276.888 86.24 276.696 86.24C276.536 86.24 276.36 86.24 276.168 86.24L256.008 55.088V80.432C256.008 81.584 256.104 82.496 256.296 83.168C256.52 83.808 256.936 84.272 257.544 84.56C258.184 84.816 259.128 84.976 260.376 85.04V86C259.8 85.936 259.048 85.904 258.12 85.904C257.192 85.872 256.312 85.856 255.48 85.856C254.68 85.856 253.864 85.872 253.032 85.904C252.232 85.904 251.56 85.936 251.016 86V85.04C252.104 84.976 252.92 84.816 253.464 84.56C254.04 84.272 254.424 83.808 254.616 83.168C254.808 82.496 254.904 81.584 254.904 80.432V57.104C254.904 55.92 254.808 55.056 254.616 54.512C254.424 53.936 254.04 53.552 253.464 53.36C252.92 53.136 252.104 53.008 251.016 52.976V52.016C251.56 52.048 252.232 52.08 253.032 52.112C253.864 52.144 254.68 52.16 255.48 52.16C256.184 52.16 256.856 52.144 257.496 52.112C258.136 52.08 258.712 52.048 259.224 52.016L276.168 78.128V57.584C276.168 56.4 276.056 55.488 275.832 54.848C275.64 54.208 275.224 53.744 274.584 53.456C273.976 53.168 273.048 53.008 271.8 52.976V52.016C272.376 52.048 273.128 52.08 274.056 52.112C275.016 52.144 275.896 52.16 276.696 52.16C277.528 52.16 278.344 52.144 279.144 52.112C279.976 52.08 280.648 52.048 281.16 52.016ZM295.199 60.608C297.247 60.608 299.087 61.056 300.719 61.952C302.351 62.848 303.647 64.256 304.607 66.176C305.599 68.096 306.095 70.592 306.095 73.664C306.095 76.736 305.599 79.232 304.607 81.152C303.647 83.04 302.351 84.432 300.719 85.328C299.087 86.224 297.247 86.672 295.199 86.672C293.183 86.672 291.343 86.224 289.679 85.328C288.047 84.432 286.735 83.04 285.743 81.152C284.783 79.232 284.303 76.736 284.303 73.664C284.303 70.592 284.783 68.096 285.743 66.176C286.735 64.256 288.047 62.848 289.679 61.952C291.343 61.056 293.183 60.608 295.199 60.608ZM295.199 61.568C293.375 61.568 291.871 62.512 290.687 64.4C289.535 66.288 288.959 69.376 288.959 73.664C288.959 77.952 289.535 81.04 290.687 82.928C291.871 84.784 293.375 85.712 295.199 85.712C297.023 85.712 298.511 84.784 299.663 82.928C300.847 81.04 301.439 77.952 301.439 73.664C301.439 69.376 300.847 66.288 299.663 64.4C298.511 62.512 297.023 61.568 295.199 61.568ZM324.664 60.608C325.528 60.608 326.28 60.784 326.92 61.136C327.592 61.488 328.104 61.952 328.456 62.528C328.84 63.072 329.032 63.696 329.032 64.4C329.032 65.2 328.776 65.904 328.264 66.512C327.784 67.12 327.128 67.424 326.296 67.424C325.624 67.424 325.032 67.216 324.52 66.8C324.008 66.352 323.752 65.728 323.752 64.928C323.752 64.32 323.912 63.808 324.232 63.392C324.584 62.944 324.968 62.592 325.384 62.336C325.16 62.016 324.824 61.856 324.376 61.856C323.384 61.856 322.472 62.16 321.64 62.768C320.808 63.344 320.104 64.096 319.528 65.024C318.952 65.952 318.504 66.944 318.184 68C317.864 69.024 317.704 69.984 317.704 70.88V81.056C317.704 82.624 318.152 83.68 319.048 84.224C319.976 84.736 321.224 84.992 322.792 84.992V86C322.056 85.968 321.016 85.936 319.672 85.904C318.328 85.84 316.904 85.808 315.4 85.808C314.312 85.808 313.224 85.84 312.136 85.904C311.08 85.936 310.28 85.968 309.736 86V84.992C311.048 84.992 311.976 84.752 312.52 84.272C313.096 83.792 313.384 82.88 313.384 81.536V66.512C313.384 65.072 313.128 64.016 312.616 63.344C312.104 62.64 311.144 62.288 309.736 62.288V61.28C310.76 61.376 311.752 61.424 312.712 61.424C313.64 61.424 314.52 61.376 315.352 61.28C316.216 61.152 317 60.976 317.704 60.752V66.752C318.056 65.824 318.552 64.896 319.192 63.968C319.864 63.008 320.664 62.208 321.592 61.568C322.52 60.928 323.544 60.608 324.664 60.608ZM352.013 48.368V80.768C352.013 82.208 352.269 83.28 352.781 83.984C353.325 84.656 354.285 84.992 355.661 84.992V86C354.669 85.904 353.677 85.856 352.685 85.856C351.757 85.856 350.861 85.904 349.997 86C349.165 86.096 348.397 86.272 347.693 86.528V54.128C347.693 52.688 347.437 51.632 346.925 50.96C346.413 50.256 345.453 49.904 344.045 49.904V48.896C345.069 48.992 346.061 49.04 347.021 49.04C347.949 49.04 348.829 48.992 349.661 48.896C350.525 48.768 351.309 48.592 352.013 48.368ZM341.933 60.608C343.341 60.608 344.653 60.944 345.869 61.616C347.117 62.288 347.949 63.44 348.365 65.072L347.741 65.552C347.293 64.208 346.589 63.232 345.629 62.624C344.701 62.016 343.597 61.712 342.317 61.712C340.429 61.712 338.845 62.688 337.565 64.64C336.317 66.592 335.709 69.6 335.741 73.664C335.741 76.256 335.981 78.416 336.461 80.144C336.973 81.84 337.709 83.12 338.669 83.984C339.661 84.816 340.861 85.232 342.269 85.232C343.613 85.232 344.829 84.656 345.917 83.504C347.005 82.352 347.661 80.656 347.885 78.416L348.461 79.088C348.205 81.52 347.421 83.392 346.109 84.704C344.829 86.016 343.085 86.672 340.877 86.672C338.893 86.672 337.149 86.192 335.645 85.232C334.173 84.272 333.037 82.832 332.237 80.912C331.469 78.992 331.085 76.576 331.085 73.664C331.085 70.752 331.581 68.336 332.573 66.416C333.597 64.464 334.925 63.008 336.557 62.048C338.221 61.088 340.013 60.608 341.933 60.608ZM363.536 49.28C364.368 49.28 365.088 49.584 365.696 50.192C366.304 50.8 366.608 51.52 366.608 52.352C366.608 53.184 366.304 53.904 365.696 54.512C365.088 55.12 364.368 55.424 363.536 55.424C362.704 55.424 361.984 55.12 361.376 54.512C360.768 53.904 360.464 53.184 360.464 52.352C360.464 51.52 360.768 50.8 361.376 50.192C361.984 49.584 362.704 49.28 363.536 49.28ZM366.032 60.752V81.536C366.032 82.88 366.304 83.792 366.848 84.272C367.424 84.752 368.368 84.992 369.68 84.992V86C369.136 85.968 368.304 85.936 367.184 85.904C366.096 85.84 364.992 85.808 363.872 85.808C362.784 85.808 361.68 85.84 360.56 85.904C359.44 85.936 358.608 85.968 358.064 86V84.992C359.376 84.992 360.304 84.752 360.848 84.272C361.424 83.792 361.712 82.88 361.712 81.536V66.512C361.712 65.072 361.456 64.016 360.944 63.344C360.432 62.64 359.472 62.288 358.064 62.288V61.28C359.088 61.376 360.08 61.424 361.04 61.424C361.968 61.424 362.848 61.376 363.68 61.28C364.544 61.152 365.328 60.976 366.032 60.752ZM384.126 60.608C385.15 60.608 386.142 60.736 387.102 60.992C388.062 61.248 388.926 61.632 389.694 62.144C390.43 62.624 390.99 63.184 391.374 63.824C391.758 64.432 391.95 65.104 391.95 65.84C391.95 66.704 391.71 67.376 391.23 67.856C390.75 68.304 390.142 68.528 389.406 68.528C388.702 68.528 388.078 68.32 387.534 67.904C387.022 67.488 386.766 66.896 386.766 66.128C386.766 65.392 386.958 64.8 387.342 64.352C387.758 63.904 388.238 63.616 388.782 63.488C388.462 62.912 387.886 62.432 387.054 62.048C386.254 61.664 385.39 61.472 384.462 61.472C383.662 61.472 382.862 61.664 382.062 62.048C381.262 62.432 380.526 63.072 379.854 63.968C379.182 64.832 378.638 66.032 378.222 67.568C377.806 69.072 377.598 70.96 377.598 73.232C377.598 76.048 377.918 78.288 378.558 79.952C379.198 81.616 380.03 82.816 381.054 83.552C382.11 84.256 383.262 84.608 384.51 84.608C385.342 84.608 386.19 84.448 387.054 84.128C387.918 83.808 388.734 83.296 389.502 82.592C390.27 81.856 390.926 80.88 391.47 79.664L392.382 80C392.062 81.024 391.534 82.064 390.798 83.12C390.062 84.144 389.102 84.992 387.918 85.664C386.734 86.336 385.278 86.672 383.55 86.672C381.566 86.672 379.774 86.16 378.174 85.136C376.574 84.112 375.294 82.656 374.334 80.768C373.406 78.848 372.942 76.576 372.942 73.952C372.942 71.328 373.406 69.024 374.334 67.04C375.294 65.024 376.622 63.456 378.318 62.336C380.014 61.184 381.95 60.608 384.126 60.608ZM434.967 52.016V52.976C434.359 53.104 433.703 53.472 432.999 54.08C432.327 54.688 431.719 55.712 431.175 57.152L419.895 86.24C419.831 86.24 419.767 86.24 419.703 86.24C419.639 86.24 419.575 86.24 419.511 86.24C419.447 86.24 419.383 86.24 419.319 86.24C419.255 86.24 419.191 86.24 419.127 86.24L407.415 56.048C406.935 54.832 406.391 54.032 405.783 53.648C405.175 53.232 404.615 53.008 404.103 52.976V52.016C404.743 52.048 405.527 52.08 406.455 52.112C407.415 52.144 408.343 52.16 409.239 52.16C410.487 52.16 411.655 52.144 412.743 52.112C413.831 52.08 414.711 52.048 415.383 52.016V52.976C414.295 53.008 413.463 53.136 412.887 53.36C412.343 53.584 412.039 53.984 411.975 54.56C411.943 55.104 412.135 55.92 412.551 57.008L421.479 80.672L420.711 81.488L429.063 59.792C429.735 58.064 430.055 56.72 430.023 55.76C429.991 54.768 429.623 54.064 428.919 53.648C428.215 53.232 427.191 53.008 425.847 52.976V52.016C426.775 52.048 427.719 52.08 428.679 52.112C429.639 52.144 430.535 52.16 431.367 52.16C432.199 52.16 432.887 52.144 433.431 52.112C433.975 52.08 434.487 52.048 434.967 52.016ZM444.822 60.608C447.638 60.608 449.83 61.472 451.398 63.2C452.998 64.896 453.798 67.552 453.798 71.168H436.854L436.806 70.256H449.19C449.254 68.688 449.126 67.248 448.806 65.936C448.486 64.592 447.974 63.52 447.27 62.72C446.598 61.92 445.718 61.52 444.63 61.52C443.158 61.52 441.846 62.256 440.694 63.728C439.574 65.2 438.902 67.536 438.678 70.736L438.822 70.928C438.758 71.408 438.71 71.936 438.678 72.512C438.646 73.088 438.63 73.664 438.63 74.24C438.63 76.416 438.982 78.288 439.686 79.856C440.39 81.424 441.302 82.624 442.422 83.456C443.574 84.256 444.758 84.656 445.974 84.656C446.934 84.656 447.846 84.512 448.71 84.224C449.574 83.904 450.374 83.392 451.11 82.688C451.846 81.984 452.486 81.04 453.03 79.856L453.99 80.24C453.638 81.296 453.062 82.32 452.262 83.312C451.462 84.304 450.454 85.12 449.238 85.76C448.022 86.368 446.614 86.672 445.014 86.672C442.71 86.672 440.726 86.144 439.062 85.088C437.43 84.032 436.166 82.576 435.27 80.72C434.406 78.832 433.974 76.672 433.974 74.24C433.974 71.424 434.422 69.008 435.318 66.992C436.214 64.944 437.478 63.376 439.11 62.288C440.742 61.168 442.646 60.608 444.822 60.608ZM472.367 60.608C473.231 60.608 473.983 60.784 474.623 61.136C475.295 61.488 475.807 61.952 476.159 62.528C476.543 63.072 476.735 63.696 476.735 64.4C476.735 65.2 476.479 65.904 475.967 66.512C475.487 67.12 474.831 67.424 473.999 67.424C473.327 67.424 472.735 67.216 472.223 66.8C471.711 66.352 471.455 65.728 471.455 64.928C471.455 64.32 471.615 63.808 471.935 63.392C472.287 62.944 472.671 62.592 473.087 62.336C472.863 62.016 472.527 61.856 472.079 61.856C471.087 61.856 470.175 62.16 469.343 62.768C468.511 63.344 467.807 64.096 467.231 65.024C466.655 65.952 466.207 66.944 465.887 68C465.567 69.024 465.407 69.984 465.407 70.88V81.056C465.407 82.624 465.855 83.68 466.751 84.224C467.679 84.736 468.927 84.992 470.495 84.992V86C469.759 85.968 468.719 85.936 467.375 85.904C466.031 85.84 464.607 85.808 463.103 85.808C462.015 85.808 460.927 85.84 459.839 85.904C458.783 85.936 457.983 85.968 457.439 86V84.992C458.751 84.992 459.679 84.752 460.223 84.272C460.799 83.792 461.087 82.88 461.087 81.536V66.512C461.087 65.072 460.831 64.016 460.319 63.344C459.807 62.64 458.847 62.288 457.439 62.288V61.28C458.463 61.376 459.455 61.424 460.415 61.424C461.343 61.424 462.223 61.376 463.055 61.28C463.919 61.152 464.703 60.976 465.407 60.752V66.752C465.759 65.824 466.255 64.896 466.895 63.968C467.567 63.008 468.367 62.208 469.295 61.568C470.223 60.928 471.247 60.608 472.367 60.608ZM486.542 53.312V61.328H493.646V62.288H486.542V80.864C486.542 82.368 486.814 83.424 487.358 84.032C487.902 84.64 488.654 84.944 489.614 84.944C490.574 84.944 491.406 84.56 492.11 83.792C492.814 82.992 493.422 81.664 493.934 79.808L494.894 80.048C494.574 81.904 493.934 83.472 492.974 84.752C492.046 86.032 490.606 86.672 488.654 86.672C487.566 86.672 486.67 86.528 485.966 86.24C485.262 85.984 484.638 85.6 484.094 85.088C483.39 84.352 482.894 83.472 482.606 82.448C482.35 81.424 482.222 80.064 482.222 78.368V62.288H477.614V61.328H482.222V53.984C483.022 53.952 483.79 53.888 484.526 53.792C485.262 53.696 485.934 53.536 486.542 53.312ZM501.255 49.28C502.087 49.28 502.807 49.584 503.415 50.192C504.023 50.8 504.327 51.52 504.327 52.352C504.327 53.184 504.023 53.904 503.415 54.512C502.807 55.12 502.087 55.424 501.255 55.424C500.423 55.424 499.703 55.12 499.095 54.512C498.487 53.904 498.183 53.184 498.183 52.352C498.183 51.52 498.487 50.8 499.095 50.192C499.703 49.584 500.423 49.28 501.255 49.28ZM503.751 60.752V81.536C503.751 82.88 504.023 83.792 504.567 84.272C505.143 84.752 506.087 84.992 507.399 84.992V86C506.855 85.968 506.023 85.936 504.903 85.904C503.815 85.84 502.711 85.808 501.591 85.808C500.503 85.808 499.399 85.84 498.279 85.904C497.159 85.936 496.327 85.968 495.783 86V84.992C497.095 84.992 498.023 84.752 498.567 84.272C499.143 83.792 499.431 82.88 499.431 81.536V66.512C499.431 65.072 499.175 64.016 498.663 63.344C498.151 62.64 497.191 62.288 495.783 62.288V61.28C496.807 61.376 497.799 61.424 498.759 61.424C499.687 61.424 500.567 61.376 501.399 61.28C502.263 61.152 503.047 60.976 503.751 60.752ZM517.573 53.312V61.328H524.677V62.288H517.573V80.864C517.573 82.368 517.845 83.424 518.389 84.032C518.933 84.64 519.685 84.944 520.645 84.944C521.605 84.944 522.437 84.56 523.141 83.792C523.845 82.992 524.453 81.664 524.965 79.808L525.925 80.048C525.605 81.904 524.965 83.472 524.005 84.752C523.077 86.032 521.637 86.672 519.685 86.672C518.597 86.672 517.701 86.528 516.997 86.24C516.293 85.984 515.669 85.6 515.125 85.088C514.421 84.352 513.925 83.472 513.637 82.448C513.381 81.424 513.253 80.064 513.253 78.368V62.288H508.645V61.328H513.253V53.984C514.053 53.952 514.821 53.888 515.557 53.792C516.293 53.696 516.965 53.536 517.573 53.312ZM538.478 60.608C541.294 60.608 543.486 61.472 545.054 63.2C546.654 64.896 547.454 67.552 547.454 71.168H530.51L530.462 70.256H542.846C542.91 68.688 542.782 67.248 542.462 65.936C542.142 64.592 541.63 63.52 540.926 62.72C540.254 61.92 539.374 61.52 538.286 61.52C536.814 61.52 535.502 62.256 534.35 63.728C533.23 65.2 532.558 67.536 532.334 70.736L532.478 70.928C532.414 71.408 532.366 71.936 532.334 72.512C532.302 73.088 532.286 73.664 532.286 74.24C532.286 76.416 532.638 78.288 533.342 79.856C534.046 81.424 534.958 82.624 536.078 83.456C537.23 84.256 538.414 84.656 539.63 84.656C540.59 84.656 541.502 84.512 542.366 84.224C543.23 83.904 544.03 83.392 544.766 82.688C545.502 81.984 546.142 81.04 546.686 79.856L547.646 80.24C547.294 81.296 546.718 82.32 545.918 83.312C545.118 84.304 544.11 85.12 542.894 85.76C541.678 86.368 540.27 86.672 538.67 86.672C536.366 86.672 534.382 86.144 532.718 85.088C531.086 84.032 529.822 82.576 528.926 80.72C528.062 78.832 527.63 76.672 527.63 74.24C527.63 71.424 528.078 69.008 528.974 66.992C529.87 64.944 531.134 63.376 532.766 62.288C534.398 61.168 536.302 60.608 538.478 60.608ZM563.095 60.608C564.119 60.608 565.111 60.736 566.071 60.992C567.031 61.248 567.895 61.632 568.663 62.144C569.399 62.624 569.959 63.184 570.343 63.824C570.727 64.432 570.919 65.104 570.919 65.84C570.919 66.704 570.679 67.376 570.199 67.856C569.719 68.304 569.111 68.528 568.375 68.528C567.671 68.528 567.047 68.32 566.503 67.904C565.991 67.488 565.735 66.896 565.735 66.128C565.735 65.392 565.927 64.8 566.311 64.352C566.727 63.904 567.207 63.616 567.751 63.488C567.431 62.912 566.855 62.432 566.023 62.048C565.223 61.664 564.359 61.472 563.431 61.472C562.631 61.472 561.831 61.664 561.031 62.048C560.231 62.432 559.495 63.072 558.823 63.968C558.151 64.832 557.607 66.032 557.191 67.568C556.775 69.072 556.567 70.96 556.567 73.232C556.567 76.048 556.887 78.288 557.527 79.952C558.167 81.616 558.999 82.816 560.023 83.552C561.079 84.256 562.231 84.608 563.479 84.608C564.311 84.608 565.159 84.448 566.023 84.128C566.887 83.808 567.703 83.296 568.471 82.592C569.239 81.856 569.895 80.88 570.439 79.664L571.351 80C571.031 81.024 570.503 82.064 569.767 83.12C569.031 84.144 568.071 84.992 566.887 85.664C565.703 86.336 564.247 86.672 562.519 86.672C560.535 86.672 558.743 86.16 557.143 85.136C555.543 84.112 554.263 82.656 553.303 80.768C552.375 78.848 551.911 76.576 551.911 73.952C551.911 71.328 552.375 69.024 553.303 67.04C554.263 65.024 555.591 63.456 557.287 62.336C558.983 61.184 560.919 60.608 563.095 60.608ZM581.975 48.416V66.368C582.807 64.192 583.959 62.688 585.431 61.856C586.935 61.024 588.503 60.608 590.135 60.608C591.351 60.608 592.359 60.768 593.159 61.088C593.991 61.408 594.679 61.856 595.223 62.432C595.831 63.072 596.263 63.872 596.519 64.832C596.775 65.792 596.903 67.088 596.903 68.72V81.536C596.903 82.88 597.175 83.792 597.719 84.272C598.295 84.752 599.239 84.992 600.551 84.992V86C600.007 85.968 599.175 85.936 598.055 85.904C596.935 85.84 595.847 85.808 594.791 85.808C593.735 85.808 592.695 85.84 591.671 85.904C590.679 85.936 589.927 85.968 589.415 86V84.992C590.567 84.992 591.383 84.752 591.863 84.272C592.343 83.792 592.583 82.88 592.583 81.536V67.664C592.583 66.672 592.503 65.76 592.343 64.928C592.183 64.096 591.815 63.424 591.239 62.912C590.695 62.4 589.847 62.144 588.695 62.144C587.383 62.144 586.215 62.512 585.191 63.248C584.199 63.984 583.415 65.008 582.839 66.32C582.263 67.632 581.975 69.136 581.975 70.832V81.536C581.975 82.88 582.215 83.792 582.695 84.272C583.175 84.752 583.991 84.992 585.143 84.992V86C584.631 85.968 583.863 85.936 582.839 85.904C581.847 85.84 580.823 85.808 579.767 85.808C578.711 85.808 577.623 85.84 576.503 85.904C575.383 85.936 574.551 85.968 574.007 86V84.992C575.319 84.992 576.247 84.752 576.791 84.272C577.367 83.792 577.655 82.88 577.655 81.536V54.176C577.655 52.736 577.399 51.68 576.887 51.008C576.375 50.304 575.415 49.952 574.007 49.952V48.944C575.031 49.04 576.023 49.088 576.983 49.088C577.911 49.088 578.791 49.04 579.623 48.944C580.487 48.816 581.271 48.64 581.975 48.416ZM261.288 115.488C262.888 115.488 264.104 115.68 264.936 116.064C265.768 116.416 266.504 116.816 267.144 117.264C267.528 117.488 267.832 117.664 268.056 117.792C268.312 117.888 268.552 117.936 268.776 117.936C269.096 117.936 269.32 117.76 269.448 117.408C269.608 117.056 269.736 116.528 269.832 115.824H270.936C270.904 116.368 270.856 117.024 270.792 117.792C270.76 118.528 270.728 119.52 270.696 120.768C270.696 121.984 270.696 123.6 270.696 125.616H269.592C269.496 124.08 269.16 122.608 268.584 121.2C268.008 119.792 267.16 118.64 266.04 117.744C264.952 116.848 263.512 116.4 261.72 116.4C260.024 116.4 258.616 116.912 257.496 117.936C256.408 118.96 255.864 120.304 255.864 121.968C255.864 123.408 256.232 124.624 256.968 125.616C257.704 126.576 258.68 127.456 259.896 128.256C261.144 129.024 262.488 129.856 263.928 130.752C265.592 131.776 267.064 132.8 268.344 133.824C269.656 134.816 270.68 135.92 271.416 137.136C272.184 138.352 272.568 139.824 272.568 141.552C272.568 143.6 272.104 145.296 271.176 146.64C270.248 147.984 269.016 148.992 267.48 149.664C265.944 150.336 264.248 150.672 262.392 150.672C260.696 150.672 259.352 150.48 258.36 150.096C257.368 149.712 256.52 149.312 255.816 148.896C255.112 148.448 254.568 148.224 254.184 148.224C253.864 148.224 253.624 148.4 253.464 148.752C253.336 149.104 253.224 149.632 253.128 150.336H252.024C252.088 149.664 252.12 148.88 252.12 147.984C252.152 147.056 252.168 145.856 252.168 144.384C252.2 142.912 252.216 141.056 252.216 138.816H253.32C253.448 140.736 253.8 142.528 254.376 144.192C254.984 145.856 255.896 147.2 257.112 148.224C258.36 149.216 260.008 149.712 262.056 149.712C263.112 149.712 264.104 149.504 265.032 149.088C265.992 148.64 266.776 147.952 267.384 147.024C267.992 146.064 268.296 144.832 268.296 143.328C268.296 142.016 267.976 140.88 267.336 139.92C266.728 138.928 265.864 138.016 264.744 137.184C263.624 136.32 262.312 135.44 260.808 134.544C259.304 133.616 257.896 132.672 256.584 131.712C255.272 130.752 254.216 129.648 253.416 128.4C252.648 127.12 252.264 125.584 252.264 123.792C252.264 121.904 252.68 120.352 253.512 119.136C254.376 117.888 255.496 116.976 256.872 116.4C258.248 115.792 259.72 115.488 261.288 115.488ZM288.074 124.608C290.122 124.608 291.962 125.056 293.594 125.952C295.226 126.848 296.522 128.256 297.482 130.176C298.474 132.096 298.97 134.592 298.97 137.664C298.97 140.736 298.474 143.232 297.482 145.152C296.522 147.04 295.226 148.432 293.594 149.328C291.962 150.224 290.122 150.672 288.074 150.672C286.058 150.672 284.218 150.224 282.554 149.328C280.922 148.432 279.61 147.04 278.618 145.152C277.658 143.232 277.178 140.736 277.178 137.664C277.178 134.592 277.658 132.096 278.618 130.176C279.61 128.256 280.922 126.848 282.554 125.952C284.218 125.056 286.058 124.608 288.074 124.608ZM288.074 125.568C286.25 125.568 284.746 126.512 283.562 128.4C282.41 130.288 281.834 133.376 281.834 137.664C281.834 141.952 282.41 145.04 283.562 146.928C284.746 148.784 286.25 149.712 288.074 149.712C289.898 149.712 291.386 148.784 292.538 146.928C293.722 145.04 294.314 141.952 294.314 137.664C294.314 133.376 293.722 130.288 292.538 128.4C291.386 126.512 289.898 125.568 288.074 125.568ZM309.774 112.368V145.536C309.774 146.88 310.046 147.792 310.59 148.272C311.166 148.752 312.11 148.992 313.422 148.992V150C312.878 149.968 312.046 149.936 310.926 149.904C309.838 149.84 308.734 149.808 307.614 149.808C306.526 149.808 305.422 149.84 304.302 149.904C303.182 149.936 302.35 149.968 301.806 150V148.992C303.118 148.992 304.046 148.752 304.59 148.272C305.166 147.792 305.454 146.88 305.454 145.536V118.128C305.454 116.688 305.198 115.632 304.686 114.96C304.174 114.256 303.214 113.904 301.806 113.904V112.896C302.83 112.992 303.822 113.04 304.782 113.04C305.71 113.04 306.59 112.992 307.422 112.896C308.286 112.768 309.07 112.592 309.774 112.368ZM337.668 124.752V144.816C337.668 146.256 337.924 147.328 338.436 148.032C338.98 148.704 339.94 149.04 341.316 149.04V150.048C340.324 149.952 339.332 149.904 338.34 149.904C337.412 149.904 336.516 149.952 335.652 150.048C334.82 150.144 334.052 150.32 333.348 150.576V144.912C332.548 146.992 331.412 148.48 329.94 149.376C328.5 150.24 327.012 150.672 325.476 150.672C324.356 150.672 323.38 150.512 322.548 150.192C321.716 149.872 321.028 149.424 320.484 148.848C319.876 148.208 319.46 147.376 319.236 146.352C319.012 145.328 318.9 144.064 318.9 142.56V130.512C318.9 129.072 318.644 128.016 318.132 127.344C317.62 126.64 316.66 126.288 315.252 126.288V125.28C316.276 125.376 317.268 125.424 318.228 125.424C319.156 125.424 320.036 125.376 320.868 125.28C321.732 125.152 322.516 124.976 323.22 124.752V143.616C323.22 144.608 323.284 145.52 323.412 146.352C323.54 147.184 323.86 147.856 324.372 148.368C324.884 148.88 325.716 149.136 326.868 149.136C328.116 149.136 329.22 148.752 330.18 147.984C331.172 147.216 331.94 146.176 332.484 144.864C333.06 143.552 333.348 142.08 333.348 140.448V130.512C333.348 129.072 333.092 128.016 332.58 127.344C332.068 126.64 331.108 126.288 329.7 126.288V125.28C330.724 125.376 331.716 125.424 332.676 125.424C333.604 125.424 334.484 125.376 335.316 125.28C336.18 125.152 336.964 124.976 337.668 124.752ZM351.495 117.312V125.328H358.599V126.288H351.495V144.864C351.495 146.368 351.767 147.424 352.311 148.032C352.855 148.64 353.607 148.944 354.567 148.944C355.527 148.944 356.359 148.56 357.063 147.792C357.767 146.992 358.375 145.664 358.887 143.808L359.847 144.048C359.527 145.904 358.887 147.472 357.927 148.752C356.999 150.032 355.559 150.672 353.607 150.672C352.519 150.672 351.623 150.528 350.919 150.24C350.215 149.984 349.591 149.6 349.047 149.088C348.343 148.352 347.847 147.472 347.559 146.448C347.303 145.424 347.175 144.064 347.175 142.368V126.288H342.567V125.328H347.175V117.984C347.975 117.952 348.743 117.888 349.479 117.792C350.215 117.696 350.887 117.536 351.495 117.312ZM366.208 113.28C367.04 113.28 367.76 113.584 368.368 114.192C368.976 114.8 369.28 115.52 369.28 116.352C369.28 117.184 368.976 117.904 368.368 118.512C367.76 119.12 367.04 119.424 366.208 119.424C365.376 119.424 364.656 119.12 364.048 118.512C363.44 117.904 363.136 117.184 363.136 116.352C363.136 115.52 363.44 114.8 364.048 114.192C364.656 113.584 365.376 113.28 366.208 113.28ZM368.704 124.752V145.536C368.704 146.88 368.976 147.792 369.52 148.272C370.096 148.752 371.04 148.992 372.352 148.992V150C371.808 149.968 370.976 149.936 369.856 149.904C368.768 149.84 367.664 149.808 366.544 149.808C365.456 149.808 364.352 149.84 363.232 149.904C362.112 149.936 361.28 149.968 360.736 150V148.992C362.048 148.992 362.976 148.752 363.52 148.272C364.096 147.792 364.384 146.88 364.384 145.536V130.512C364.384 129.072 364.128 128.016 363.616 127.344C363.104 126.64 362.144 126.288 360.736 126.288V125.28C361.76 125.376 362.752 125.424 363.712 125.424C364.64 125.424 365.52 125.376 366.352 125.28C367.216 125.152 368 124.976 368.704 124.752ZM386.558 124.608C388.606 124.608 390.446 125.056 392.078 125.952C393.71 126.848 395.006 128.256 395.966 130.176C396.958 132.096 397.454 134.592 397.454 137.664C397.454 140.736 396.958 143.232 395.966 145.152C395.006 147.04 393.71 148.432 392.078 149.328C390.446 150.224 388.606 150.672 386.558 150.672C384.542 150.672 382.702 150.224 381.038 149.328C379.406 148.432 378.094 147.04 377.102 145.152C376.142 143.232 375.662 140.736 375.662 137.664C375.662 134.592 376.142 132.096 377.102 130.176C378.094 128.256 379.406 126.848 381.038 125.952C382.702 125.056 384.542 124.608 386.558 124.608ZM386.558 125.568C384.734 125.568 383.23 126.512 382.046 128.4C380.894 130.288 380.318 133.376 380.318 137.664C380.318 141.952 380.894 145.04 382.046 146.928C383.23 148.784 384.734 149.712 386.558 149.712C388.382 149.712 389.87 148.784 391.022 146.928C392.206 145.04 392.798 141.952 392.798 137.664C392.798 133.376 392.206 130.288 391.022 128.4C389.87 126.512 388.382 125.568 386.558 125.568ZM417.223 124.608C418.439 124.608 419.447 124.768 420.247 125.088C421.079 125.408 421.767 125.856 422.311 126.432C422.919 127.072 423.351 127.872 423.607 128.832C423.863 129.792 423.991 131.088 423.991 132.72V145.536C423.991 146.88 424.263 147.792 424.807 148.272C425.383 148.752 426.327 148.992 427.639 148.992V150C427.095 149.968 426.263 149.936 425.143 149.904C424.023 149.84 422.935 149.808 421.879 149.808C420.823 149.808 419.783 149.84 418.759 149.904C417.767 149.936 417.015 149.968 416.503 150V148.992C417.655 148.992 418.471 148.752 418.951 148.272C419.431 147.792 419.671 146.88 419.671 145.536V131.664C419.671 130.672 419.591 129.76 419.431 128.928C419.271 128.096 418.903 127.424 418.327 126.912C417.783 126.4 416.935 126.144 415.783 126.144C414.439 126.144 413.255 126.528 412.231 127.296C411.239 128.064 410.455 129.12 409.879 130.464C409.335 131.776 409.063 133.248 409.063 134.88V145.536C409.063 146.88 409.303 147.792 409.783 148.272C410.263 148.752 411.079 148.992 412.231 148.992V150C411.719 149.968 410.951 149.936 409.927 149.904C408.935 149.84 407.911 149.808 406.855 149.808C405.799 149.808 404.711 149.84 403.591 149.904C402.471 149.936 401.639 149.968 401.095 150V148.992C402.407 148.992 403.335 148.752 403.879 148.272C404.455 147.792 404.743 146.88 404.743 145.536V130.512C404.743 129.072 404.487 128.016 403.975 127.344C403.463 126.64 402.503 126.288 401.095 126.288V125.28C402.119 125.376 403.111 125.424 404.071 125.424C404.999 125.424 405.879 125.376 406.711 125.28C407.575 125.152 408.359 124.976 409.063 124.752V130.416C409.895 128.24 411.047 126.736 412.519 125.904C414.023 125.04 415.591 124.608 417.223 124.608ZM438.328 124.608C439.608 124.608 440.696 124.816 441.592 125.232C442.488 125.648 443.144 126.032 443.56 126.384C444.616 127.248 445.256 126.672 445.48 124.656H446.584C446.52 125.552 446.472 126.624 446.44 127.872C446.408 129.088 446.392 130.736 446.392 132.816H445.288C445.096 131.632 444.76 130.48 444.28 129.36C443.832 128.24 443.16 127.328 442.264 126.624C441.368 125.888 440.2 125.52 438.76 125.52C437.64 125.52 436.696 125.84 435.928 126.48C435.192 127.088 434.824 128 434.824 129.216C434.824 130.176 435.112 131.008 435.688 131.712C436.264 132.384 437.016 133.024 437.944 133.632C438.872 134.208 439.88 134.848 440.968 135.552C442.184 136.32 443.288 137.104 444.28 137.904C445.272 138.704 446.056 139.584 446.632 140.544C447.24 141.504 447.544 142.64 447.544 143.952C447.544 145.424 447.16 146.656 446.392 147.648C445.624 148.64 444.616 149.392 443.368 149.904C442.152 150.416 440.808 150.672 439.336 150.672C438.632 150.672 437.96 150.608 437.32 150.48C436.712 150.384 436.12 150.224 435.544 150C435.224 149.84 434.888 149.648 434.536 149.424C434.216 149.2 433.896 148.96 433.576 148.704C433.256 148.448 432.968 148.464 432.712 148.752C432.456 149.008 432.264 149.536 432.136 150.336H431.032C431.096 149.312 431.144 148.064 431.176 146.592C431.208 145.12 431.224 143.168 431.224 140.736H432.328C432.552 142.528 432.872 144.096 433.288 145.44C433.704 146.784 434.36 147.84 435.256 148.608C436.152 149.344 437.4 149.712 439 149.712C439.64 149.712 440.28 149.568 440.92 149.28C441.592 148.992 442.152 148.512 442.6 147.84C443.048 147.168 443.272 146.272 443.272 145.152C443.272 143.744 442.76 142.592 441.736 141.696C440.712 140.8 439.416 139.856 437.848 138.864C436.696 138.128 435.608 137.392 434.584 136.656C433.592 135.92 432.776 135.088 432.136 134.16C431.528 133.232 431.224 132.112 431.224 130.8C431.224 129.36 431.544 128.192 432.184 127.296C432.856 126.368 433.736 125.696 434.824 125.28C435.912 124.832 437.08 124.608 438.328 124.608Z" fill="black"/>
</g>
<defs>
<clipPath id="clip0_6_2">
<rect width="636" height="200" fill="white"/>
</clipPath>
</defs>
</svg>
