<svg width="200" height="200" viewBox="0 0 200 200" fill="none" xmlns="http://www.w3.org/2000/svg">
<g clip-path="url(#clip0_2_2)">
<path d="M11 179.002C11 181.763 13.2386 184.002 16 184.002C18.7614 184.002 21 181.763 21 179.002H11ZM11 29.9983L11 179.002H21L21 29.9983H11Z" fill="black"/>
<line x1="16.0002" y1="30.9983" x2="90.2252" y2="129.914" stroke="black" stroke-width="10" stroke-linecap="round"/>
<path d="M85.5 130.002C85.5 132.764 87.7386 135.002 90.5 135.002C93.2614 135.002 95.5 132.764 95.5 130.002H85.5ZM95.5 130.002L95.5 25.9953H85.5L85.5 130.002H95.5Z" fill="black"/>
<path d="M31 80L105.746 179.192" stroke="black" stroke-width="10" stroke-linecap="round"/>
<path d="M106.051 179.002L106.051 30" stroke="black" stroke-width="10" stroke-linecap="round"/>
<path d="M117 179C117 181.761 119.239 184 122 184C124.761 184 127 181.761 127 179H117ZM127 179L127 26H117L117 179H127Z" fill="black"/>
<path d="M191.001 30.5055C193.763 30.5055 196.001 28.2669 196.001 25.5055C196.001 22.7441 193.763 20.5055 191.001 20.5055V30.5055ZM10.9987 30.5055H191.001V20.5055H10.9987V30.5055Z" fill="black"/>
<path d="M156.58 38.58C162.58 38.58 167.14 39.3 170.26 40.74C173.38 42.06 176.14 43.56 178.54 45.24C179.98 46.08 181.12 46.74 181.96 47.22C182.92 47.58 183.82 47.76 184.66 47.76C185.86 47.76 186.7 47.1 187.18 45.78C187.78 44.46 188.26 42.48 188.62 39.84H192.76C192.64 41.88 192.46 44.34 192.22 47.22C192.1 49.98 191.98 53.7 191.86 58.38C191.86 62.94 191.86 69 191.86 76.56H187.72C187.36 70.8 186.1 65.28 183.94 60C181.78 54.72 178.6 50.4 174.4 47.04C170.32 43.68 164.92 42 158.2 42C151.84 42 146.56 43.92 142.36 47.76C138.28 51.6 136.24 56.64 136.24 62.88C136.24 68.28 137.62 72.84 140.38 76.56C143.14 80.16 146.8 83.46 151.36 86.46C156.04 89.34 161.08 92.46 166.48 95.82C172.72 99.66 178.24 103.5 183.04 107.34C187.96 111.06 191.8 115.2 194.56 119.76C197.44 124.32 198.88 129.84 198.88 136.32C198.88 144 197.14 150.36 193.66 155.4C190.18 160.44 185.56 164.22 179.8 166.74C174.04 169.26 167.68 170.52 160.72 170.52C154.36 170.52 149.32 169.8 145.6 168.36C141.88 166.92 138.7 165.42 136.06 163.86C133.42 162.18 131.38 161.34 129.94 161.34C128.74 161.34 127.84 162 127.24 163.32C126.76 164.64 126.34 166.62 125.98 169.26H121.84C122.08 166.74 122.2 163.8 122.2 160.44C122.32 156.96 122.38 152.46 122.38 146.94C122.5 141.42 122.56 134.46 122.56 126.06H126.7C127.18 133.26 128.5 139.98 130.66 146.22C132.94 152.46 136.36 157.5 140.92 161.34C145.6 165.06 151.78 166.92 159.46 166.92C163.42 166.92 167.14 166.14 170.62 164.58C174.22 162.9 177.16 160.32 179.44 156.84C181.72 153.24 182.86 148.62 182.86 142.98C182.86 138.06 181.66 133.8 179.26 130.2C176.98 126.48 173.74 123.06 169.54 119.94C165.34 116.7 160.42 113.4 154.78 110.04C149.14 106.56 143.86 103.02 138.94 99.42C134.02 95.82 130.06 91.68 127.06 87C124.18 82.2 122.74 76.44 122.74 69.72C122.74 62.64 124.3 56.82 127.42 52.26C130.66 47.58 134.86 44.16 140.02 42C145.18 39.72 150.7 38.58 156.58 38.58Z" fill="black"/>
</g>
<defs>
<clipPath id="clip0_2_2">
<rect width="200" height="200" fill="white"/>
</clipPath>
</defs>
</svg>
